<svg width="27" height="26" viewBox="0 0 27 26" fill="none" xmlns="http://www.w3.org/2000/svg">
<path d="M11.1162 2.22709C11.8647 -0.0758616 15.1236 -0.0758522 15.8721 2.22709L17.4492 7.08353C17.65 7.70149 18.2262 8.11956 18.876 8.11966H23.9824C26.4039 8.1198 27.4107 11.2185 25.4521 12.6421L21.3213 15.6441C20.7956 16.026 20.5756 16.7028 20.7764 17.3208L22.3535 22.1773C23.1018 24.4805 20.4661 26.3955 18.5068 24.9722L14.376 21.9712C13.8502 21.5893 13.138 21.5893 12.6123 21.9712L8.48145 24.9722C6.52221 26.3955 3.88653 24.4805 4.63477 22.1773L6.21191 17.3208C6.41272 16.7028 6.19272 16.026 5.66699 15.6441L1.53613 12.6421C-0.422435 11.2185 0.584376 8.1198 3.00586 8.11966H8.1123C8.76204 8.11956 9.33828 7.70149 9.53906 7.08353L11.1162 2.22709Z" fill="#FDF7F0" stroke="#1D152C"/>
</svg>
